<svg xmlns="http://www.w3.org/2000/svg" viewBox="0 0 1930 362" width="1930" height="362" fill="none">
  <path d="M1.46667 3.6C2.26667 5.73333 7.6 20.8 13.3333 37.3333C19.0667 53.8667 26 73.6 28.6667 81.3333C31.3333 89.0667 38.6667 110 44.9333 128C51.0667 146 58.5333 167.2 61.3333 175.333C67.4667 192.8 81.6 233.733 104.667 300C114 326.8 122.533 351.467 123.733 355.067L126 361.333L177.2 361.067L228.4 360.667L234.8 342C238.267 331.733 245.733 310.133 251.333 294C256.933 277.867 266.533 250.267 272.667 232.667C278.8 215.067 288.133 188.4 293.333 173.333C298.667 158.267 305.867 137.6 309.333 127.333C316.933 105.333 323.333 86.9333 340.533 37.3333C347.6 17.2 353.333 0.533333 353.333 0.4C353.333 0.133333 330.4 0.133333 302.4 0.266667L251.333 0.666667L240.933 30.6667C235.2 47.2 227.467 69.0667 224 79.3333C220.4 89.6 212.933 111.2 207.333 127.333C201.733 143.467 192.933 168.933 187.733 184C182.533 199.067 177.867 211.867 177.2 212.533C176.667 213.067 175.6 211.6 174.933 209.2C174.133 206.667 168.4 190 162.267 172C141.6 112.667 131.067 82.4 120.667 52.6667C115.067 36.5333 108.667 18.1333 106.4 11.6L102.4 0H0L1.46667 3.6Z" fill="#0a0a0a"/>
  <path d="M429.333 361.333H532V0H429.333V361.333Z" fill="#0a0a0a"/>
  <path d="M621.333 101.333L704.4 101.6L787.467 102L760.667 127.333C746 141.2 708.667 176.533 677.6 205.733L621.333 258.8V361.333H937.333V260H854C804.8 260 770.667 259.467 770.667 258.8C770.667 258.133 772.667 255.867 775.067 253.867C777.333 251.867 794.933 235.467 814 217.467C833.067 199.467 868.667 165.867 893.067 142.8L937.333 101.067V0H621.333V101.333Z" fill="#0a0a0a"/>
  <path d="M1026.67 101.333H1109.33C1154.8 101.333 1192 101.6 1192 101.867C1192 102.667 1173.73 120.133 1130.67 160.667C1111.2 178.933 1079.87 208.533 1061.07 226.4L1026.67 258.933L1026.4 310.133L1026 361.333H1342V260H1259.07C1213.33 260 1176 259.467 1176 258.933C1176 258.4 1183.07 251.333 1191.73 243.333C1200.4 235.2 1227.87 209.467 1252.8 185.867C1277.6 162.4 1307.87 133.867 1320 122.4L1342 101.733L1341.6 50.8L1341.33 0H1026.67V101.333Z" fill="#0a0a0a"/>
  <path d="M1468 361.333H1478.67V0H1468V361.333Z" fill="#0a0a0a"/>
  <path d="M1720.67 1.46673C1681.07 7.60006 1648 25.0667 1618.67 55.4667C1594.13 81.0667 1579.33 108 1571.87 140.667C1568.4 156.133 1567.07 188.667 1569.2 204.133C1575.47 248.133 1591.87 280.267 1624.27 311.467C1653.2 339.333 1684 354.533 1722.4 360C1737.07 362.133 1774.53 360.933 1788 358C1844.27 345.467 1893.33 304.933 1915.87 252.533C1926 229.2 1930 208.667 1929.87 180.667C1929.87 128.933 1913.33 89.2001 1876.67 52.6667C1851.2 27.0667 1823.33 11.4667 1789.73 3.86673C1779.33 1.60006 1771.73 0.800065 1752.67 0.533398C1739.47 0.400065 1725.07 0.800065 1720.67 1.46673ZM1773.2 12.0001C1826.93 18.8001 1877.2 55.4667 1902 106C1914.53 131.333 1918.53 149.867 1918.67 180.8C1918.67 229.467 1903.47 266 1868.8 300.8C1841.73 327.867 1813.47 342.933 1778.53 348.8C1758.67 352.133 1724.13 350.8 1706.67 346.267C1681.73 339.6 1661.73 329.2 1640.93 312C1610.4 286.8 1590.13 253.467 1581.73 214.267C1578.53 199.333 1578.53 162.4 1581.73 147.2C1589.2 112.133 1604.4 84.9334 1631.47 58.6667C1652.27 38.5334 1670.67 27.0667 1696.13 18.5334C1717.73 11.3334 1747.47 8.80006 1773.2 12.0001Z" fill="#0a0a0a"/>
</svg>
